# xmcd CD database file
#
# Track frame offsets:
#	150
#	18162
#	42905
#	63835
#	77687
#	96980
#	109387
#	124690
#	141760
#	154909
#	164857
#
# Disc length: 2428 seconds
#
# Revision: 0
# Processed by: cddbd v1.5.2PL0 Copyright (c) Steve Scherf et al.
# Submitted via: CD2WAV32(JP) R3.22
#
DISCID=92097a0b
DTITLE=Various Artist - Traum
DYEAR=1999
DGENRE=Instrumental
TTITLE0=energy flow
TTITLE1=passacaglia
TTITLE2=Reverie
TTITLE3=Gymnopedie
TTITLE4=Reve de Dolly
TTITLE5=Adagtetto Amoroso
TTITLE6=lAdagto fur Glasharmonika KV356
TTITLE7=Vogel als Prophet
TTITLE8=Apres un Reve
TTITLE9=Orgelchoral:Befiehld detns Wege
TTITLE10=Morgen op27-4
EXTD=
EXTT0=
EXTT1=
EXTT2=
EXTT3=
EXTT4=
EXTT5=
EXTT6=
EXTT7=
EXTT8=
EXTT9=
EXTT10=
PLAYORDER=
